<svg width="45" height="10" viewBox="0 0 45 10" fill="none" xmlns="http://www.w3.org/2000/svg">
<path d="M1.10742 4.76953L1.57031 0.46875H6.15234V1.69922H2.75391L2.51953 3.73828C2.91406 3.51172 3.35938 3.39844 3.85547 3.39844C4.66797 3.39844 5.29883 3.6582 5.74805 4.17773C6.20117 4.69727 6.42773 5.39648 6.42773 6.27539C6.42773 7.14258 6.17773 7.83398 5.67773 8.34961C5.17773 8.86133 4.49219 9.11719 3.62109 9.11719C2.83984 9.11719 2.19141 8.89648 1.67578 8.45508C1.16406 8.00977 0.886719 7.42383 0.84375 6.69727H2.2207C2.27539 7.11133 2.42383 7.42969 2.66602 7.65234C2.9082 7.87109 3.22461 7.98047 3.61523 7.98047C4.05273 7.98047 4.39258 7.82422 4.63477 7.51172C4.88086 7.19922 5.00391 6.77344 5.00391 6.23438C5.00391 5.71484 4.86914 5.30469 4.59961 5.00391C4.33008 4.69922 3.95898 4.54688 3.48633 4.54688C3.22852 4.54688 3.00977 4.58203 2.83008 4.65234C2.65039 4.71875 2.45508 4.85156 2.24414 5.05078L1.10742 4.76953ZM8.49609 7.5C8.76172 7.5 8.9668 7.57617 9.11133 7.72852C9.25586 7.87695 9.32812 8.06445 9.32812 8.29102C9.32812 8.51367 9.25586 8.69922 9.11133 8.84766C8.9668 8.99219 8.76172 9.06445 8.49609 9.06445C8.24219 9.06445 8.04102 8.99219 7.89258 8.84766C7.74414 8.70312 7.66992 8.51758 7.66992 8.29102C7.66992 8.06445 7.74219 7.87695 7.88672 7.72852C8.03125 7.57617 8.23438 7.5 8.49609 7.5ZM8.49609 2.52539C8.76172 2.52539 8.9668 2.60156 9.11133 2.75391C9.25586 2.90234 9.32812 3.08984 9.32812 3.31641C9.32812 3.53906 9.25586 3.72461 9.11133 3.87305C8.9668 4.01758 8.76172 4.08984 8.49609 4.08984C8.24219 4.08984 8.04102 4.01758 7.89258 3.87305C7.74414 3.72852 7.66992 3.54297 7.66992 3.31641C7.66992 3.08984 7.74219 2.90234 7.88672 2.75391C8.03125 2.60156 8.23438 2.52539 8.49609 2.52539ZM15.5508 5.95898H16.6113V7.10156H15.5508V9H14.127V7.10156H10.4414L10.4004 6.23438L14.0801 0.46875H15.5508V5.95898ZM11.8945 5.95898H14.127V2.39648L14.0215 2.58398L11.8945 5.95898ZM23.1152 5.4082C23.1152 6.63477 22.8848 7.56055 22.4238 8.18555C21.9668 8.80664 21.2695 9.11719 20.332 9.11719C19.4102 9.11719 18.7148 8.81445 18.2461 8.20898C17.7812 7.59961 17.543 6.69922 17.5312 5.50781V4.03125C17.5312 2.80469 17.7598 1.88477 18.2168 1.27148C18.6777 0.658203 19.3789 0.351562 20.3203 0.351562C21.2539 0.351562 21.9492 0.650391 22.4062 1.24805C22.8672 1.8457 23.1035 2.74023 23.1152 3.93164V5.4082ZM21.6914 3.81445C21.6914 3.01367 21.582 2.42773 21.3633 2.05664C21.1445 1.68164 20.7969 1.49414 20.3203 1.49414C19.8555 1.49414 19.5137 1.67188 19.2949 2.02734C19.0762 2.37891 18.9609 2.92969 18.9492 3.67969V5.61328C18.9492 6.41016 19.0605 7.00391 19.2832 7.39453C19.5059 7.78516 19.8555 7.98047 20.332 7.98047C20.7891 7.98047 21.127 7.80078 21.3457 7.44141C21.5645 7.07812 21.6797 6.51172 21.6914 5.74219V3.81445ZM29.0742 5.83008V9H27.5918V0.46875H30.8555C31.8086 0.46875 32.5645 0.716797 33.123 1.21289C33.6855 1.70898 33.9668 2.36523 33.9668 3.18164C33.9668 4.01758 33.6914 4.66797 33.1406 5.13281C32.5938 5.59766 31.8262 5.83008 30.8379 5.83008H29.0742ZM29.0742 4.64062H30.8555C31.3828 4.64062 31.7852 4.51758 32.0625 4.27148C32.3398 4.02148 32.4785 3.66211 32.4785 3.19336C32.4785 2.73242 32.3379 2.36523 32.0566 2.0918C31.7754 1.81445 31.3887 1.67188 30.8965 1.66406H29.0742V4.64062ZM37.1895 0.46875L39.6504 7.00781L42.1055 0.46875H44.0215V9H42.5449V6.1875L42.6914 2.42578L40.1719 9H39.1113L36.5977 2.43164L36.7441 6.1875V9H35.2676V0.46875H37.1895Z" fill="white"/>
</svg>
